<svg data-v-0dd9719b="" version="1.0" xmlns="http://www.w3.org/2000/svg" xmlns:xlink="http://www.w3.org/1999/xlink" width="100%" height="100%" viewBox="0 0 340.000000 250.000000" preserveAspectRatio="xMidYMid meet" color-interpolation-filters="sRGB" style="margin: auto;"> <rect data-v-0dd9719b="" x="0" y="0" width="100%" height="100%" fill="#fff" fill-opacity="1" class="background"></rect> <rect data-v-0dd9719b="" x="0" y="0" width="100%" height="100%" fill="url(#watermark)" fill-opacity="1" class="watermarklayer"></rect> <g data-v-0dd9719b="" fill="#eb008b" class="icon-text-wrapper icon-svg-group iconsvg" transform="translate(67.73999786376953,91.28569412231445)"><g class="iconsvg-imagesvg" transform="translate(0,0)"><g><rect fill="#eb008b" fill-opacity="0" stroke-width="2" x="0" y="0" width="60" height="67.42860995920569" class="image-rect"></rect> <svg x="0" y="0" width="60" height="67.42860995920569" filtersec="colorsb4277438796" class="image-svg-svg primary" style="overflow: visible;"><svg xmlns="http://www.w3.org/2000/svg" viewBox="0 0 98.6199951171875 110.83000183105469"><defs><linearGradient id="ad99163ac-f7ca-447e-b95b-9cf4cc6994ef" x1="56.17" y1="94.56" x2="4.11" y2="58.65" gradientUnits="userSpaceOnUse"><stop offset="0" stop-color="#f074ac"></stop><stop offset=".5" stop-color="#eb008b"></stop><stop offset="1" stop-color="#cd118c"></stop></linearGradient><linearGradient id="b0e3f3f9e-8200-402f-bd24-a0c960b21db1" x1="47.6" y1="105.46" x2="-3.28" y2="70.37" gradientUnits="userSpaceOnUse"><stop offset="0" stop-color="#f074ac"></stop><stop offset=".5" stop-color="#eb008b"></stop><stop offset="1" stop-color="#cd118c"></stop></linearGradient><linearGradient id="c62f7bfd7-bd2e-4d4d-8009-86a7e8f47ff1" x1="86.31" y1="49.96" x2="35.33" y2="14.8" gradientUnits="userSpaceOnUse"><stop offset="0" stop-color="#f074ac"></stop><stop offset=".5" stop-color="#eb008b"></stop><stop offset="1" stop-color="#cd118c"></stop></linearGradient><linearGradient id="d77957ec1-4f6f-4f72-ae7d-c767cf377f85" x1="94.95" y1="3.45" x2="-28.89" y2="144.22" gradientUnits="userSpaceOnUse"><stop offset="0" stop-color="#f074ac"></stop><stop offset=".5" stop-color="#eb008b"></stop><stop offset="1" stop-color="#cd118c"></stop></linearGradient><linearGradient id="ef7efce58-0e2e-4667-ae4f-2e5ae66e2f50" x1="71.46" y1="-17.43" x2="-51.43" y2="122.26" gradientUnits="userSpaceOnUse"><stop offset="0" stop-color="#f074ac"></stop><stop offset=".5" stop-color="#eb008b"></stop><stop offset="1" stop-color="#cd118c"></stop></linearGradient><linearGradient id="fdca26f85-7e8b-4805-a6a5-a2ad8a6a32b1" x1="118.5" y1="25.04" x2="-3.62" y2="163.84" gradientUnits="userSpaceOnUse"><stop offset="0" stop-color="#f074ac"></stop><stop offset=".5" stop-color="#eb008b"></stop><stop offset="1" stop-color="#cd118c"></stop></linearGradient><linearGradient id="g42a7306e-9807-47fc-9a24-e42264110af3" x1="94.37" y1="37.21" x2="43.41" y2="2.06" gradientUnits="userSpaceOnUse"><stop offset="0" stop-color="#f074ac"></stop><stop offset=".5" stop-color="#eb008b"></stop><stop offset="1" stop-color="#cd118c"></stop></linearGradient></defs><g><g><path fill="url(#ad99163ac-f7ca-447e-b95b-9cf4cc6994ef)" d="M16.55 83.83L0 56.83h25.54l17.74 27H16.55z"></path><path fill="url(#b0e3f3f9e-8200-402f-bd24-a0c960b21db1)" d="M35 110.83l-10.88-18h25.54l12.07 18H35z"></path><path fill="url(#c62f7bfd7-bd2e-4d4d-8009-86a7e8f47ff1)" d="M72.49 55.83l-18.57-26h25.54l19.16 26H72.49z"></path><path fill="url(#d77957ec1-4f6f-4f72-ae7d-c767cf377f85)" d="M53.74 28.4L16.55 83.83H43.5l23.63-36.2L53.74 28.4z"></path><path fill="url(#ef7efce58-0e2e-4667-ae4f-2e5ae66e2f50)" d="M36.71 0L0 56.83h25.54L48.36 19.9 36.71 0z"></path><path fill="url(#fdca26f85-7e8b-4805-a6a5-a2ad8a6a32b1)" d="M72.49 55.83l-37.49 55h26.94l36.68-55H72.49z"></path><path fill="url(#g42a7306e-9807-47fc-9a24-e42264110af3)" d="M48.36 19.83L36.89.83h25.54l12.07 19H48.36z"></path></g></g></svg></svg> <!----></g></g> <g transform="translate(67,7.230243682861328)"><g data-gra="path-name" fill-rule="" class="tp-name iconsvg-namesvg" transform="translate(0,0)"><g transform="scale(1)"><g><path d="M12.24-24.48L12.24-21.24 32.53-21.24 32.53-24.48 12.24-24.48ZM25.65-22.45L21.73-22.45 20.65-18.13 24.57-18.13 25.65-22.45ZM13.28-19.57L13.28-16.34 31.77-16.34 31.77-19.57 13.28-19.57ZM17.19-16.88L13.28-16.88 13.28-7.92 17.19-7.92 17.19-16.88ZM31.77-16.74L27.86-16.74 27.86-7.88 31.77-7.88 31.77-16.74ZM13.28-8.78L13.28-5.54 31.72-5.54 31.77-8.78 13.28-8.78ZM13.46-15.3L13.46-12.87 31.77-12.87 31.77-15.3 13.46-15.3ZM13.32-12.2L13.32-9.81 31.77-9.81 31.77-12.2 13.32-12.2ZM15.93-6.79Q14.85-4.46 13.81-2.88 12.78-1.3 11.21 0.81L11.21 0.81 15.12 0.81Q15.84 0.22 16.81-1.4 17.77-3.01 19.21-5.58L19.21-5.58Q19.62-6.39 19.89-6.79L19.89-6.79 15.93-6.79ZM27.04-4.68Q26.19-2.07 23.63-0.27 21.06 1.53 17.73 2.5 14.4 3.46 11.03 3.65L11.03 3.65 12.91 6.88Q18.09 6.66 22.03 4.86 25.96 3.06 28.21 0.47 30.46-2.11 30.91-4.68L30.91-4.68 27.04-4.68ZM15.39-0.54Q18.22 2.43 22.9 4.54 27.58 6.66 32.71 7.11L32.71 7.11 34.74 4.05Q32.31 4 28.82 2.88 25.33 1.75 22.14 0.11 18.95-1.53 17.37-3.01L17.37-3.01 15.39-0.54ZM16.61-4.68L16.11-1.44 28.08-1.44 27.99-4.68 16.61-4.68ZM8.64 6.88Q9.76 2.65 10.35-6.84 10.93-16.34 11.07-25.92L11.07-25.92 32.85-25.92 32.85-30.15 5.67-30.15Q5.8-27.54 5.8-24.39L5.8-24.39Q5.8-15.66 5.04-6.01 4.27 3.65 3.33 6.88L3.33 6.88 8.64 6.88ZM45.23-31.05L47.61-24.16 52.38-24.16 49.86-31.05 45.23-31.05ZM54.05-24.12L62.64-24.12 62.64 2.16 58.77 2.16 59.58 6.66 64.26 6.66Q65.61 6.66 66.56 5.71 67.5 4.77 67.5 3.38L67.5 3.38 67.5-28.57 54.05-28.57 54.05-24.12ZM45.95 6.93L45.95-25.74 41.31-25.74 41.31 6.93 45.95 6.93ZM86.44-27.13L86.44-23.09 98.82-23.09 98.82-27.13 86.44-27.13ZM85.09-20.34L85.09-16.29 103.81-16.29 103.81-20.34 85.09-20.34ZM100.22-27.22Q98.82-23.45 96.48-20.99 94.14-18.54 91.69-17.21 89.23-15.88 85.86-14.58L85.86-14.58 84.06-13.86 84.06-9.76 86.04-10.35Q90.59-11.61 93.69-13.07 96.8-14.54 99.86-17.89 102.91-21.24 105.07-27.13L105.07-27.13 100.22-27.22ZM95-31.14L90.31-31.14 90.31-17.77 95-17.77 95-31.14ZM92.52-8.01L97.56-8.01 97.56 2.79 92.56 2.79 92.52-8.01ZM87.8 6.93L102.11 6.93 102.11-12.29 87.89-12.29 87.8 6.93ZM89.41-4.59L89.41-0.67 100.35-0.77 100.35-4.68 89.41-4.59ZM75.69-20.25L75.69-16.34 78.84-16.34 77.63 2.88 85.86 0.09 85.86-4.32 82.17-2.97 83.39-20.25 75.69-20.25ZM82.58-30.91L77.89-30.91 79.78-24.16 84.47-24.16 82.58-30.91ZM127.58-15.66L135.13-15.66 135.09 1.62 127.66 1.57 127.58-15.66ZM122.72 6.08L139.68 6.08 139.68-20.38 122.85-20.38 122.72 6.08ZM132.3-17.41Q132.88-17.91 133.4-20.18 133.92-22.45 134.55-26.41L134.55-26.41 129.65-26.41Q129.06-21.82 127.35-17.41L127.35-17.41 132.3-17.41ZM119.66-21.87Q119.66-21.91 120.19-23.29 120.73-24.66 121.45-27 122.17-29.34 122.44-31L122.44-31 117.63-31Q117.45-29.47 116.48-26.93 115.52-24.39 114.25-22.07 113-19.75 112.05-18.86L112.05-18.86 112.05-12.73 113.17-13.68Q113.85-14.22 114.44-14.8 115.02-15.39 115.2-15.79L115.2-15.79 115.2 6.48 119.66 6.48 119.66-21.87ZM122.31-29.56L122.31-25.2 140.85-25.2 140.85-29.56 122.31-29.56ZM124.34-10.17L124.34-5.63 138.24-5.63 138.24-10.17 124.34-10.17Z" transform="translate(-3.3299999237060547, 31.139999389648438)"></path></g> <!----> <!----> <!----> <!----> <!----> <!----> <!----></g></g> <g data-gra="path-slogan" fill-rule="" class="tp-slogan iconsvg-slogansvg" fill="#eb008b" transform="translate(5,44.25)"><rect x="0" height="1" y="3.8600001335144043" width="14.960002899169922"></rect> <rect height="1" y="3.8600001335144043" width="14.960002899169922" x="112.56000137329102"></rect> <g transform="translate(17.960002899169922,0)"><g transform="scale(1)"><path d="M7.64-8.58L4.73-4.41L7.78 0L6.33 0L3.98-3.52L1.64 0L0.23 0L3.33-4.41L0.42-8.58L1.88-8.58L4.03-5.30L6.23-8.58L7.64-8.58ZM9.05-8.58L10.22-8.58L10.22 0L9.05 0L9.05-8.58ZM17.86 0L17.02-2.48L13.55-2.48L12.66 0L11.48 0L14.72-8.58L16.03-8.58L19.13 0L17.86 0ZM15.28-7.31L13.92-3.52L16.59-3.52L15.33-7.31L15.28-7.31ZM28.41-8.58L28.41 0L27.28 0L27.28-5.06Q27.28-5.77 27.28-7.22L27.28-7.22L24.84 0L23.67 0L21.28-7.22L21.23-7.22Q21.23-6.70 21.28-5.67L21.28-5.67Q21.28-5.16 21.28-5.06L21.28-5.06L21.28 0L20.11 0L20.11-8.58L21.80-8.58L24.28-1.31L26.72-8.58L28.41-8.58ZM31.41-1.03L36.56-1.03L36.56 0L30.23 0L30.23-8.58L36.47-8.58L36.47-7.59L31.41-7.59L31.41-4.92L36.09-4.92L36.09-3.89L31.41-3.89L31.41-1.03ZM39.47-8.58L43.78-1.64L43.78-8.58L44.91-8.58L44.91 0L43.59 0L39.23-6.94L39.19-6.94L39.19 0L38.06 0L38.06-8.58L39.47-8.58ZM50.86-1.03L56.16-1.03L56.16 0L49.41 0L49.41-0.94L54.66-7.59L49.78-7.59L49.78-8.58L56.16-8.58L56.16-7.59L50.86-1.03ZM58.45-5.06L62.95-5.06L62.95-8.58L64.13-8.58L64.13 0L62.95 0L62.95-3.98L58.45-3.98L58.45 0L57.28 0L57.28-8.58L58.45-8.58L58.45-5.06ZM71.58-3.19L71.58-8.58L72.75-8.58L72.75-3.05Q72.61 0.05 69.23 0.14L69.23 0.14Q66.09 0.05 65.95-2.86L65.95-2.86L65.95-8.58L67.13-8.58L67.13-3.19Q67.17-0.84 69.28-0.80L69.28-0.80Q71.58-0.84 71.58-3.19L71.58-3.19ZM77.77-7.64L75.70-7.64L75.70-4.97L77.77-4.97Q79.59-4.92 79.55-6.38L79.55-6.38Q79.55-7.64 77.77-7.64L77.77-7.64ZM78.23 0L74.53 0L74.53-8.58L78.33-8.58Q80.63-8.48 80.72-6.42L80.72-6.42Q80.72-5.16 79.59-4.64L79.59-4.64Q81.19-4.08 81.19-2.53L81.19-2.53Q81.05-0.09 78.23 0L78.23 0ZM77.95-3.98L75.70-3.98L75.70-0.98L78.19-0.98Q79.97-1.03 80.02-2.53L80.02-2.53Q80.02-3.98 77.95-3.98L77.95-3.98ZM88.17 0L87.33-2.48L83.86-2.48L82.97 0L81.80 0L85.03-8.58L86.34-8.58L89.44 0L88.17 0ZM85.59-7.31L84.23-3.52L86.91-3.52L85.64-7.31L85.59-7.31ZM90.66-8.58L91.83-8.58L91.83 0L90.66 0L90.66-8.58Z" transform="translate(-0.234375, 8.578125)"></path></g></g></g></g></g><defs v-gra="od"></defs></svg>